<svg id="Layer_1" viewBox="0 0 500 500" xmlns="http://www.w3.org/2000/svg"><defs><style>.cls-1{fill:#2a73ff;}.cls-2{fill:#fff;stroke:#000;stroke-miterlimit:10;stroke-width:15px;}</style></defs><title></title><circle class="cls-1" cx="250" cy="250" r="239"></circle><path class="cls-2" d="M67,293.84h0a21.44,21.44,0,0,1,5.83-30l144.94-96.16L242,203.06,96.54,299.58A21.44,21.44,0,0,1,67,293.84Z"></path><rect class="cls-2" height="77.97" transform="translate(253.97 -125.33) rotate(56.33)" width="120.56" x="183.74" y="135.52"></rect><polygon class="cls-2" points="172.55 157.48 152.43 130.77 236.8 74.58 256.91 101.28 172.55 157.48"></polygon><polygon class="cls-2" points="254.84 280.2 234.73 253.5 319.1 197.3 339.21 224 254.84 280.2"></polygon><path class="cls-2" d="M346.69,328.85H174.07s3.29,30.41-14.8,30.41h220.3c-18.08,0-14.8-30.41-14.8-30.41H192.15"></path><path class="cls-2" d="M364.75,359.27H150.45S154.53,397,132.08,397h273.5c-22.45,0-18.37-37.76-18.37-37.76H172.9"></path></svg>